<?xml version="1.0" standalone="no"?>
<!DOCTYPE svg PUBLIC "-//W3C//DTD SVG 20010904//EN"
 "http://www.w3.org/TR/2001/REC-SVG-20010904/DTD/svg10.dtd">
<svg version="1.0" xmlns="http://www.w3.org/2000/svg"
 width="1795.000000pt" height="1795.000000pt" viewBox="0 0 1795.000000 1795.000000"
 preserveAspectRatio="xMidYMid meet">
<metadata>
Created by potrace 1.11, written by Peter Selinger 2001-2013
</metadata>
<g transform="translate(0.000000,1795.000000) scale(0.100000,-0.100000)"
fill="#000000" stroke="none">
<path d="M3570 9491 c0 -6758 3 -8460 13 -8463 10 -3 177 -2 213 1 7 1 10
2557 10 8461 l0 8460 -118 0 -118 0 0 -8459z"/>
<path d="M7769 17933 c0 -10 -1 -1446 -1 -3190 -1 -2889 -3 -3173 -17 -3174
-9 -1 -99 -2 -201 -3 l-185 -1 0 -515 0 -515 201 -3 201 -2 -1 -4743 c-1
-2608 0 -4746 1 -4752 4 -14 222 -12 231 2 4 6 7 2144 6 4752 l0 4741 195 2
195 3 1 495 c0 272 -1 504 -3 515 -3 20 -10 20 -185 20 -100 -1 -187 1 -193 2
-7 3 -10 947 -9 3181 0 1747 -1 3183 -3 3190 -3 9 -36 12 -118 12 -102 0 -114
-2 -115 -17z"/>
<path d="M11920 9491 c0 -6758 3 -8460 13 -8463 10 -3 198 -2 217 1 4 1 6
3808 6 8461 l0 8460 -118 0 -118 0 0 -8459z"/>
<path d="M5621 16920 c-4 -3 -6 -1219 -6 -2702 0 -1814 -3 -2698 -10 -2699 -5
0 -101 -1 -212 -1 -177 -1 -203 -3 -207 -17 -3 -9 -4 -242 -4 -517 l1 -501
191 -1 c105 0 202 0 216 -1 l25 -1 0 -5237 0 -5238 118 -3 117 -3 0 5241 0
5240 33 1 c17 1 100 2 182 3 l150 1 1 505 c0 278 -1 510 -3 516 -3 7 -56 11
-161 12 -86 0 -167 1 -179 1 l-23 1 0 2703 0 2702 -111 0 c-61 0 -114 -2 -118
-5z"/>
<path d="M9828 16922 c-15 -3 -16 -100 -16 -1014 0 -694 -3 -1012 -10 -1017
-6 -4 -84 -6 -174 -5 -90 0 -167 -1 -173 -3 -7 -2 -9 -180 -8 -511 0 -279 2
-510 2 -514 1 -3 80 -6 176 -5 96 0 177 -2 181 -5 3 -4 6 -3121 6 -6927 l0
-6921 119 0 119 0 0 6925 c0 6588 1 6925 18 6926 9 0 106 1 215 1 l197 0 -2
517 -3 516 -205 1 c-113 1 -208 2 -212 3 -5 0 -8 458 -8 1016 0 558 -3 1015
-7 1016 -23 3 -202 4 -215 1z"/>
<path d="M14160 16922 l-25 -3 0 -8459 0 -8460 117 0 118 0 0 8460 c0 4653 -3
8460 -7 8461 -22 3 -182 4 -203 1z"/>
</g>
</svg>
